<?xml version="1.0" standalone="no"?>
<!DOCTYPE svg PUBLIC "-//W3C//DTD SVG 20010904//EN"
 "http://www.w3.org/TR/2001/REC-SVG-20010904/DTD/svg10.dtd">
<svg version="1.0" xmlns="http://www.w3.org/2000/svg"
 width="551.000000pt" height="412.000000pt" viewBox="0 0 551.000000 412.000000"
 preserveAspectRatio="xMidYMid meet">

<g transform="translate(0.000000,412.000000) scale(0.100000,-0.100000)"
fill="#000000" stroke="none">
<path d="M3780 3700 c-338 -62 -803 -279 -1096 -511 -75 -60 -188 -178 -210
-220 -50 -98 1 -156 146 -166 105 -8 202 8 490 77 144 35 287 63 347 69 276
25 410 -56 373 -225 -58 -260 -460 -651 -885 -860 -168 -82 -472 -169 -800
-228 l-80 -14 126 -1 c259 -2 456 30 709 116 91 31 185 62 209 70 l45 13 -27
-27 c-14 -16 -66 -50 -114 -76 -48 -26 -99 -57 -113 -68 l-25 -21 70 5 c105 8
168 26 162 47 -5 20 11 53 22 46 4 -3 24 -1 44 4 29 6 41 4 53 -7 14 -14 19
-14 52 2 76 36 203 126 277 196 105 100 184 209 250 342 129 263 150 476 75
772 -16 66 -30 131 -30 145 0 41 36 89 154 205 123 120 154 169 163 258 5 50
4 54 -18 61 -58 18 -264 16 -369 -4z m193 -79 c15 -15 -15 -90 -54 -135 -36
-40 -141 -106 -171 -106 -7 0 -21 15 -31 33 -10 17 -46 66 -82 107 -35 41 -64
78 -65 81 0 4 39 12 88 19 48 6 94 13 102 15 27 7 204 -5 213 -14z"/>
<path d="M3159 1678 c-1 -44 -3 -43 -13 5 -4 15 -11 27 -17 27 -8 0 -9 -18 -4
-57 5 -47 4 -56 -6 -45 -7 6 -21 12 -31 12 -15 0 -12 -9 18 -50 34 -48 38 -50
84 -50 l47 0 6 53 c3 28 9 67 13 85 8 40 -10 44 -24 5 -10 -27 -10 -26 -11 15
-1 44 -21 61 -21 17 0 -14 -4 -25 -10 -25 -5 0 -10 11 -10 25 0 44 -20 27 -21
-17z"/>
<path d="M2910 1230 l0 -330 75 0 75 0 0 330 0 330 -75 0 -75 0 0 -330z"/>
<path d="M2223 1525 c-41 -29 -38 -98 6 -132 62 -48 154 34 117 105 -23 45
-80 57 -123 27z"/>
<path d="M3610 1393 l0 -62 -32 -3 c-32 -3 -33 -4 -33 -53 0 -49 1 -50 33 -53
l32 -3 0 -160 0 -159 70 0 70 0 0 159 0 160 33 3 c31 3 32 4 35 56 l3 52 -35
0 -36 0 0 63 0 62 -70 0 -70 0 0 -62z"/>
<path d="M1910 1324 c-49 -21 -69 -42 -80 -85 -8 -29 -7 -46 3 -71 19 -45 37
-58 125 -88 62 -21 78 -30 80 -48 7 -50 -94 -51 -174 -1 l-31 19 -15 -56 -16
-56 47 -21 c65 -29 178 -35 236 -13 93 36 124 144 59 209 -14 14 -56 36 -92
48 -81 26 -101 41 -82 63 16 20 70 20 117 1 19 -8 39 -15 43 -15 9 0 35 89 27
96 -12 12 -116 34 -162 33 -27 0 -66 -7 -85 -15z"/>
<path d="M2495 1326 c-43 -19 -92 -78 -106 -128 -15 -58 -6 -155 19 -205 29
-57 73 -86 138 -91 67 -6 95 1 133 34 l31 26 0 -50 c0 -68 -24 -97 -78 -97
-28 0 -48 7 -65 23 -19 18 -35 22 -90 22 -36 0 -69 -4 -72 -10 -11 -18 27 -79
64 -102 32 -20 49 -23 151 -23 126 0 162 12 203 66 30 41 36 96 37 327 l0 212
-70 0 -70 0 0 -32 0 -32 -27 26 c-50 48 -134 62 -198 34z m194 -123 c43 -35
44 -129 2 -167 -11 -10 -37 -20 -58 -23 -74 -10 -124 60 -102 141 5 19 20 42
32 51 29 21 99 19 126 -2z"/>
<path d="M3236 1325 c-21 -7 -54 -28 -73 -47 -148 -140 -51 -387 152 -388 72
0 115 15 165 57 106 91 107 240 2 335 -63 57 -160 74 -246 43z m145 -134 c24
-25 29 -38 29 -79 0 -44 -4 -54 -31 -76 -35 -30 -58 -32 -99 -11 -31 16 -42
39 -42 90 0 50 11 74 40 90 41 22 71 18 103 -14z"/>
<path d="M2200 1115 l0 -215 75 0 75 0 0 215 0 215 -75 0 -75 0 0 -215z"/>
</g>
</svg>
